<?xml version="1.0" encoding="utf-8"?>
<!-- Generator: Adobe Illustrator 19.1.0, SVG Export Plug-In . SVG Version: 6.00 Build 0)  -->
<svg version="1.1" id="Слой_1" xmlns="http://www.w3.org/2000/svg" xmlns:xlink="http://www.w3.org/1999/xlink" x="0px" y="0px"
	 viewBox="0 0 217 31" style="enable-background:new 0 0 217 31;" xml:space="preserve">
<style type="text/css">
	.st0{fill:#FFFFFF;}
	.st1{fill:url(#SVGID_1_);}
	.st2{fill:url(#SVGID_2_);}
	.st3{fill:url(#SVGID_3_);}
	.st4{fill:url(#SVGID_4_);}
	.st5{fill:url(#SVGID_5_);}
	.st6{fill:url(#SVGID_6_);}
	.st7{fill:url(#SVGID_7_);}
	.st8{fill:url(#SVGID_8_);}
	.st9{fill:url(#SVGID_9_);}
	.st10{fill:url(#SVGID_10_);}
	.st11{fill:url(#SVGID_11_);}
	.st12{fill:url(#SVGID_12_);}
	.st13{fill:url(#SVGID_13_);}
	.st14{fill:url(#SVGID_14_);}
	.st15{fill:url(#SVGID_15_);}
	.st16{fill:url(#SVGID_16_);}
	.st17{fill:url(#SVGID_17_);}
	.st18{fill:url(#SVGID_18_);}
	.st19{fill:url(#SVGID_19_);}
	.st20{fill:url(#SVGID_20_);}
	.st21{fill:url(#SVGID_21_);}
	.st22{fill:url(#SVGID_22_);}
	.st23{fill:url(#SVGID_23_);}
	.st24{fill:url(#SVGID_24_);}
	.st25{fill:url(#SVGID_25_);}
	.st26{fill:url(#SVGID_26_);}
	.st27{fill:url(#SVGID_27_);}
	.st28{fill:url(#SVGID_28_);}
	.st29{fill:url(#SVGID_29_);}
	.st30{fill:url(#SVGID_30_);}
	.st31{fill:url(#SVGID_31_);}
	.st32{fill:url(#SVGID_32_);}
	.st33{fill:url(#SVGID_33_);}
	.st34{fill:url(#SVGID_34_);}
	.st35{fill:url(#SVGID_35_);}
	.st36{fill:url(#SVGID_36_);}
	.st37{fill:url(#SVGID_37_);}
	.st38{fill:url(#SVGID_38_);}
	.st39{fill:url(#SVGID_39_);}
	.st40{fill:url(#SVGID_40_);}
	.st41{fill:url(#SVGID_41_);}
	.st42{fill:url(#SVGID_42_);}
	.st43{fill:url(#SVGID_43_);}
	.st44{fill:url(#SVGID_44_);}
	.st45{fill:url(#SVGID_45_);}
	.st46{fill:url(#SVGID_46_);}
	.st47{fill:url(#SVGID_47_);}
	.st48{fill:url(#SVGID_48_);}
</style>
<g>
	<path class="st0" d="M466,1210.9v2.7l-3.7,1.1l3.7,1.3v2.2l-3.7,1.3l3.7,1.1v2.7l-7.8-2.5v-2.3l3.9-1.4l-3.9-1.4v-2.3L466,1210.9z"
		/>
	<path class="st0" d="M466,1225.4v2.6h-7.7v-2.6H466z"/>
	<path class="st0" d="M463.8,1232.6v-2.3h2.2v7.1h-2.2v-2.3h-5.6v-2.6H463.8z"/>
	<path class="st0" d="M466,1239.9v2.6h-2.7v2.4h2.7v2.6h-7.7v-2.6h2.8v-2.4h-2.8v-2.6H466z"/>
</g>
<g>
	<path class="st0" d="M254.8,1135.1h22l13.5,22.1l13.5-22.1h22v63h-21v-31.2l-14.5,22.4h-0.4l-14.5-22.4v31.2h-20.6V1135.1z"/>
	<path class="st0" d="M354.4,1134.7h20.9l26.5,63.4h-22.9l-3.3-8.5h-22l-3.2,8.5h-22.5L354.4,1134.7z M370.4,1174.7l-5.8-15.3
		l-5.8,15.3H370.4z"/>
	<path class="st0" d="M412,1152.9h-18.5v-17.8h58.1v17.8H433v45.2H412V1152.9z"/>
	<path class="st0" d="M472,1152.9h-18.5v-17.8h58.1v17.8h-18.5v45.2H472V1152.9z"/>
	<path class="st0" d="M515.9,1135.1h53.7v17.3h-33v6.4h30.8v15.2h-30.8v6.8h33.5v17.3h-54.2V1135.1z"/>
	<path class="st0" d="M575.3,1135.1h30.8c11.2,0,18.3,2.8,22.7,7.2c3.8,3.8,5.8,8.5,5.8,14.9v0.2c0,9.2-4.8,15.6-12.4,19.3
		l14.7,21.4h-24l-11.9-18h-4.5v18h-21.1V1135.1z M605.5,1165.1c5,0,8.1-2.3,8.1-6.1v-0.2c0-4-3.2-6-8-6h-9.2v12.3H605.5z"/>
	<path class="st0" d="M660.2,1166.8v-0.2c0-18.3,15-32.8,34.5-32.8c19.4,0,34.3,14.4,34.3,32.7v0.2c0,18.3-15,32.8-34.5,32.8
		C675,1199.5,660.2,1185.1,660.2,1166.8z M707.7,1166.8v-0.2c0-7.5-5.1-14.2-13.2-14.2c-8,0-13,6.7-13,14v0.2
		c0,7.5,5.1,14.2,13.2,14.2C702.7,1180.8,707.7,1174.2,707.7,1166.8z"/>
	<path class="st0" d="M734.3,1135.1H787v18h-31.7v8h29.4v16.4h-29.4v20.6h-21.1V1135.1z"/>
	<path class="st0" d="M813.9,1135.1h52.7v18H835v8h29.4v16.4H835v20.6h-21.1V1135.1z"/>
	<path class="st0" d="M885.9,1134.7h20.9l26.5,63.4h-22.9l-3.3-8.5h-22l-3.2,8.5h-22.5L885.9,1134.7z M901.9,1174.7l-5.8-15.3
		l-5.8,15.3H901.9z"/>
	<path class="st0" d="M930,1166.8v-0.2c0-18.8,14.7-32.8,33.5-32.8c13.9,0,23.2,6.8,28.5,16.4l-17.4,10.2c-2.3-4.5-5.7-7.6-11.4-7.6
		c-7.1,0-11.8,6.2-11.8,13.8v0.2c0,8.2,4.9,14,11.8,14c5.9,0,9.3-3.2,11.9-7.9l17.4,9.8c-5.3,9.4-14.1,17-29.8,17
		C945.2,1199.5,930,1186.3,930,1166.8z"/>
	<path class="st0" d="M1012.2,1152.9h-18.5v-17.8h58.1v17.8h-18.5v45.2h-21.1V1152.9z"/>
</g>
<g>
	<linearGradient id="SVGID_1_" gradientUnits="userSpaceOnUse" x1="485.8049" y1="1212.3865" x2="485.8049" y2="1247.4092">
		<stop  offset="0" style="stop-color:#F2CB40"/>
		<stop  offset="1" style="stop-color:#BB9738"/>
	</linearGradient>
	<path class="st1" d="M471.8,1212.4h28v8.5h-18.3v6h16.6v8.1h-16.6v12.5h-9.7V1212.4z"/>
	<linearGradient id="SVGID_2_" gradientUnits="userSpaceOnUse" x1="518.2196" y1="1212.3865" x2="518.2196" y2="1247.4092">
		<stop  offset="0" style="stop-color:#F2CB40"/>
		<stop  offset="1" style="stop-color:#BB9738"/>
	</linearGradient>
	<path class="st2" d="M504,1212.4h28.2v8.2h-18.6v5.4h16.8v7.7h-16.8v5.6h18.8v8.3H504V1212.4z"/>
	<linearGradient id="SVGID_3_" gradientUnits="userSpaceOnUse" x1="553.2884" y1="1212.3865" x2="553.2884" y2="1247.4092">
		<stop  offset="0" style="stop-color:#F2CB40"/>
		<stop  offset="1" style="stop-color:#BB9738"/>
	</linearGradient>
	<path class="st3" d="M537.2,1212.4h16.6c5.4,0,9.1,1.4,11.4,3.8c2.1,2.1,3.1,4.7,3.1,8.2v0.1c0,5.4-2.9,9-7.2,10.8l8.4,12.2h-11.2
		l-7.1-10.6h-4.3v10.6h-9.7V1212.4z M553.3,1229.2c3.3,0,5.2-1.6,5.2-4.2v-0.1c0-2.8-2.1-4.2-5.3-4.2h-6.4v8.5H553.3z"/>
	<linearGradient id="SVGID_4_" gradientUnits="userSpaceOnUse" x1="589.4303" y1="1212.3865" x2="589.4303" y2="1247.4092">
		<stop  offset="0" style="stop-color:#F2CB40"/>
		<stop  offset="1" style="stop-color:#BB9738"/>
	</linearGradient>
	<path class="st4" d="M572.9,1212.4h9.1l14.4,18.5v-18.5h9.6v35h-8.5l-15-19.2v19.2h-9.6V1212.4z"/>
	<linearGradient id="SVGID_5_" gradientUnits="userSpaceOnUse" x1="628.7238" y1="1212.1366" x2="628.7238" y2="1247.4092">
		<stop  offset="0" style="stop-color:#F2CB40"/>
		<stop  offset="1" style="stop-color:#BB9738"/>
	</linearGradient>
	<path class="st5" d="M624,1212.1h9.4l14.9,35.3h-10.4l-2.5-6.3h-13.6l-2.5,6.3h-10.2L624,1212.1z M632.5,1233.6l-3.9-9.9l-4,9.9
		H632.5z"/>
	<linearGradient id="SVGID_6_" gradientUnits="userSpaceOnUse" x1="667.9694" y1="1212.3865" x2="667.9694" y2="1247.4092">
		<stop  offset="0" style="stop-color:#F2CB40"/>
		<stop  offset="1" style="stop-color:#BB9738"/>
	</linearGradient>
	<path class="st6" d="M651.4,1212.4h9.1l14.4,18.5v-18.5h9.6v35h-8.5l-15-19.2v19.2h-9.6V1212.4z"/>
	<linearGradient id="SVGID_7_" gradientUnits="userSpaceOnUse" x1="707.088" y1="1212.3865" x2="707.088" y2="1247.4092">
		<stop  offset="0" style="stop-color:#F2CB40"/>
		<stop  offset="1" style="stop-color:#BB9738"/>
	</linearGradient>
	<path class="st7" d="M690.5,1212.4H704c12.5,0,19.7,7.2,19.7,17.3v0.1c0,10.1-7.4,17.6-19.9,17.6h-13.4V1212.4z M700.2,1220.9v17.9
		h4c5.9,0,9.7-3.2,9.7-8.9v-0.1c0-5.6-3.9-8.9-9.7-8.9H700.2z"/>
	<linearGradient id="SVGID_8_" gradientUnits="userSpaceOnUse" x1="746.2321" y1="1211.6858" x2="746.2321" y2="1248.1097">
		<stop  offset="0" style="stop-color:#F2CB40"/>
		<stop  offset="1" style="stop-color:#BB9738"/>
	</linearGradient>
	<path class="st8" d="M727.4,1230L727.4,1230c0-10.2,8.1-18.3,18.9-18.3c10.8,0,18.8,8.1,18.8,18.1v0.1c0,10.1-8.1,18.2-18.9,18.2
		C735.4,1248.1,727.4,1240.1,727.4,1230z M755.1,1230L755.1,1230c0-5.2-3.6-9.6-9-9.6c-5.4,0-8.9,4.3-8.9,9.4v0.1
		c0,5.1,3.7,9.5,9,9.5C751.6,1239.4,755.1,1235.1,755.1,1230z"/>
	<linearGradient id="SVGID_9_" gradientUnits="userSpaceOnUse" x1="797.6564" y1="1212.3865" x2="797.6564" y2="1247.4092">
		<stop  offset="0" style="stop-color:#F2CB40"/>
		<stop  offset="1" style="stop-color:#BB9738"/>
	</linearGradient>
	<path class="st9" d="M783.4,1212.4h28.2v8.2h-18.6v5.4h16.8v7.7h-16.8v5.6h18.8v8.3h-28.4V1212.4z"/>
	<linearGradient id="SVGID_10_" gradientUnits="userSpaceOnUse" x1="829.2473" y1="1211.7858" x2="829.2473" y2="1248.0098">
		<stop  offset="0" style="stop-color:#F2CB40"/>
		<stop  offset="1" style="stop-color:#BB9738"/>
	</linearGradient>
	<path class="st10" d="M814,1242.2l5.4-6.5c3.5,2.8,7.3,4.2,11.4,4.2c2.7,0,4.1-0.9,4.1-2.4v-0.1c0-1.5-1.2-2.3-6-3.4
		c-7.5-1.7-13.2-3.8-13.2-11v-0.1c0-6.5,5.2-11.2,13.6-11.2c6,0,10.6,1.6,14.4,4.7l-4.9,6.9c-3.2-2.3-6.7-3.5-9.8-3.5
		c-2.4,0-3.5,1-3.5,2.3v0.1c0,1.6,1.2,2.3,6.1,3.4c8,1.8,13,4.4,13,10.9v0.1c0,7.2-5.7,11.4-14.2,11.4
		C824.2,1248,818.3,1246.1,814,1242.2z"/>
	<linearGradient id="SVGID_11_" gradientUnits="userSpaceOnUse" x1="863.7643" y1="1212.3865" x2="863.7643" y2="1247.4092">
		<stop  offset="0" style="stop-color:#F2CB40"/>
		<stop  offset="1" style="stop-color:#BB9738"/>
	</linearGradient>
	<path class="st11" d="M849,1212.4H864c8.8,0,14.5,4.6,14.5,12.3v0.1c0,8.3-6.4,12.7-15,12.7h-4.9v10H849V1212.4z M863.3,1229.8
		c3.4,0,5.6-1.9,5.6-4.6v-0.1c0-3-2.2-4.6-5.6-4.6h-4.6v9.3H863.3z"/>
	<linearGradient id="SVGID_12_" gradientUnits="userSpaceOnUse" x1="898.2807" y1="1212.3865" x2="898.2807" y2="1248.0598">
		<stop  offset="0" style="stop-color:#F2CB40"/>
		<stop  offset="1" style="stop-color:#BB9738"/>
	</linearGradient>
	<path class="st12" d="M882,1232v-19.7h9.8v19.5c0,5.1,2.6,7.5,6.5,7.5c4,0,6.5-2.3,6.5-7.2v-19.7h9.8v19.4
		c0,11.3-6.5,16.3-16.4,16.3C888.2,1248.1,882,1243,882,1232z"/>
	<linearGradient id="SVGID_13_" gradientUnits="userSpaceOnUse" x1="934.2733" y1="1212.3865" x2="934.2733" y2="1247.4092">
		<stop  offset="0" style="stop-color:#F2CB40"/>
		<stop  offset="1" style="stop-color:#BB9738"/>
	</linearGradient>
	<path class="st13" d="M920.1,1212.4h28.2v8.2h-18.6v5.4h16.8v7.7h-16.8v5.6h18.8v8.3h-28.4V1212.4z"/>
	<linearGradient id="SVGID_14_" gradientUnits="userSpaceOnUse" x1="966.5641" y1="1212.3865" x2="966.5641" y2="1247.4092">
		<stop  offset="0" style="stop-color:#F2CB40"/>
		<stop  offset="1" style="stop-color:#BB9738"/>
	</linearGradient>
	<path class="st14" d="M953.2,1212.4h9.7v26.5h17v8.5h-26.7V1212.4z"/>
	<linearGradient id="SVGID_15_" gradientUnits="userSpaceOnUse" x1="1000.6559" y1="1212.1366" x2="1000.6559" y2="1247.4092">
		<stop  offset="0" style="stop-color:#F2CB40"/>
		<stop  offset="1" style="stop-color:#BB9738"/>
	</linearGradient>
	<path class="st15" d="M996,1212.1h9.4l14.9,35.3h-10.4l-2.5-6.3h-13.6l-2.5,6.3h-10.2L996,1212.1z M1004.5,1233.6l-3.9-9.9l-4,9.9
		H1004.5z"/>
	<linearGradient id="SVGID_16_" gradientUnits="userSpaceOnUse" x1="1035.4977" y1="1211.7858" x2="1035.4977" y2="1248.0098">
		<stop  offset="0" style="stop-color:#F2CB40"/>
		<stop  offset="1" style="stop-color:#BB9738"/>
	</linearGradient>
	<path class="st16" d="M1020.2,1242.2l5.4-6.5c3.5,2.8,7.3,4.2,11.4,4.2c2.7,0,4.1-0.9,4.1-2.4v-0.1c0-1.5-1.2-2.3-6-3.4
		c-7.5-1.7-13.2-3.8-13.2-11v-0.1c0-6.5,5.2-11.2,13.6-11.2c6,0,10.6,1.6,14.4,4.7l-4.9,6.9c-3.2-2.3-6.7-3.5-9.8-3.5
		c-2.4,0-3.5,1-3.5,2.3v0.1c0,1.6,1.2,2.3,6.1,3.4c8,1.8,13,4.4,13,10.9v0.1c0,7.2-5.7,11.4-14.2,11.4
		C1030.4,1248,1024.6,1246.1,1020.2,1242.2z"/>
</g>
<g>
	<path class="st0" d="M466,1210.9v2.7l-3.7,1.1l3.7,1.3v2.2l-3.7,1.3l3.7,1.1v2.7l-7.8-2.5v-2.3l3.9-1.4l-3.9-1.4v-2.3L466,1210.9z"
		/>
	<path class="st0" d="M466,1225.4v2.6h-7.7v-2.6H466z"/>
	<path class="st0" d="M463.8,1232.6v-2.3h2.2v7.1h-2.2v-2.3h-5.6v-2.6H463.8z"/>
	<path class="st0" d="M466,1239.9v2.6h-2.7v2.4h2.7v2.6h-7.7v-2.6h2.8v-2.4h-2.8v-2.6H466z"/>
</g>
<g>
	<path class="st0" d="M254.8,1135.1h22l13.5,22.1l13.5-22.1h22v63h-21v-31.2l-14.5,22.4h-0.4l-14.5-22.4v31.2h-20.6V1135.1z"/>
	<path class="st0" d="M354.4,1134.7h20.9l26.5,63.4h-22.9l-3.3-8.5h-22l-3.2,8.5h-22.5L354.4,1134.7z M370.4,1174.7l-5.8-15.3
		l-5.8,15.3H370.4z"/>
	<path class="st0" d="M412,1152.9h-18.5v-17.8h58.1v17.8H433v45.2H412V1152.9z"/>
	<path class="st0" d="M472,1152.9h-18.5v-17.8h58.1v17.8h-18.5v45.2H472V1152.9z"/>
	<path class="st0" d="M515.9,1135.1h53.7v17.3h-33v6.4h30.8v15.2h-30.8v6.8h33.5v17.3h-54.2V1135.1z"/>
	<path class="st0" d="M575.3,1135.1h30.8c11.2,0,18.3,2.8,22.7,7.2c3.8,3.8,5.8,8.5,5.8,14.9v0.2c0,9.2-4.8,15.6-12.4,19.3
		l14.7,21.4h-24l-11.9-18h-4.5v18h-21.1V1135.1z M605.5,1165.1c5,0,8.1-2.3,8.1-6.1v-0.2c0-4-3.2-6-8-6h-9.2v12.3H605.5z"/>
	<path class="st0" d="M660.2,1166.8v-0.2c0-18.3,15-32.8,34.5-32.8c19.4,0,34.3,14.4,34.3,32.7v0.2c0,18.3-15,32.8-34.5,32.8
		C675,1199.5,660.2,1185.1,660.2,1166.8z M707.7,1166.8v-0.2c0-7.5-5.1-14.2-13.2-14.2c-8,0-13,6.7-13,14v0.2
		c0,7.5,5.1,14.2,13.2,14.2C702.7,1180.8,707.7,1174.2,707.7,1166.8z"/>
	<path class="st0" d="M734.3,1135.1H787v18h-31.7v8h29.4v16.4h-29.4v20.6h-21.1V1135.1z"/>
	<path class="st0" d="M813.9,1135.1h52.7v18H835v8h29.4v16.4H835v20.6h-21.1V1135.1z"/>
	<path class="st0" d="M885.9,1134.7h20.9l26.5,63.4h-22.9l-3.3-8.5h-22l-3.2,8.5h-22.5L885.9,1134.7z M901.9,1174.7l-5.8-15.3
		l-5.8,15.3H901.9z"/>
	<path class="st0" d="M930,1166.8v-0.2c0-18.8,14.7-32.8,33.5-32.8c13.9,0,23.2,6.8,28.5,16.4l-17.4,10.2c-2.3-4.5-5.7-7.6-11.4-7.6
		c-7.1,0-11.8,6.2-11.8,13.8v0.2c0,8.2,4.9,14,11.8,14c5.9,0,9.3-3.2,11.9-7.9l17.4,9.8c-5.3,9.4-14.1,17-29.8,17
		C945.2,1199.5,930,1186.3,930,1166.8z"/>
	<path class="st0" d="M1012.2,1152.9h-18.5v-17.8h58.1v17.8h-18.5v45.2h-21.1V1152.9z"/>
</g>
<g>
	<linearGradient id="SVGID_17_" gradientUnits="userSpaceOnUse" x1="485.8049" y1="1212.3865" x2="485.8049" y2="1247.4092">
		<stop  offset="0" style="stop-color:#F2CB40"/>
		<stop  offset="1" style="stop-color:#BB9738"/>
	</linearGradient>
	<path class="st17" d="M471.8,1212.4h28v8.5h-18.3v6h16.6v8.1h-16.6v12.5h-9.7V1212.4z"/>
	<linearGradient id="SVGID_18_" gradientUnits="userSpaceOnUse" x1="518.2196" y1="1212.3865" x2="518.2196" y2="1247.4092">
		<stop  offset="0" style="stop-color:#F2CB40"/>
		<stop  offset="1" style="stop-color:#BB9738"/>
	</linearGradient>
	<path class="st18" d="M504,1212.4h28.2v8.2h-18.6v5.4h16.8v7.7h-16.8v5.6h18.8v8.3H504V1212.4z"/>
	<linearGradient id="SVGID_19_" gradientUnits="userSpaceOnUse" x1="553.2884" y1="1212.3865" x2="553.2884" y2="1247.4092">
		<stop  offset="0" style="stop-color:#F2CB40"/>
		<stop  offset="1" style="stop-color:#BB9738"/>
	</linearGradient>
	<path class="st19" d="M537.2,1212.4h16.6c5.4,0,9.1,1.4,11.4,3.8c2.1,2.1,3.1,4.7,3.1,8.2v0.1c0,5.4-2.9,9-7.2,10.8l8.4,12.2h-11.2
		l-7.1-10.6h-4.3v10.6h-9.7V1212.4z M553.3,1229.2c3.3,0,5.2-1.6,5.2-4.2v-0.1c0-2.8-2.1-4.2-5.3-4.2h-6.4v8.5H553.3z"/>
	<linearGradient id="SVGID_20_" gradientUnits="userSpaceOnUse" x1="589.4303" y1="1212.3865" x2="589.4303" y2="1247.4092">
		<stop  offset="0" style="stop-color:#F2CB40"/>
		<stop  offset="1" style="stop-color:#BB9738"/>
	</linearGradient>
	<path class="st20" d="M572.9,1212.4h9.1l14.4,18.5v-18.5h9.6v35h-8.5l-15-19.2v19.2h-9.6V1212.4z"/>
	<linearGradient id="SVGID_21_" gradientUnits="userSpaceOnUse" x1="628.7238" y1="1212.1366" x2="628.7238" y2="1247.4092">
		<stop  offset="0" style="stop-color:#F2CB40"/>
		<stop  offset="1" style="stop-color:#BB9738"/>
	</linearGradient>
	<path class="st21" d="M624,1212.1h9.4l14.9,35.3h-10.4l-2.5-6.3h-13.6l-2.5,6.3h-10.2L624,1212.1z M632.5,1233.6l-3.9-9.9l-4,9.9
		H632.5z"/>
	<linearGradient id="SVGID_22_" gradientUnits="userSpaceOnUse" x1="667.9694" y1="1212.3865" x2="667.9694" y2="1247.4092">
		<stop  offset="0" style="stop-color:#F2CB40"/>
		<stop  offset="1" style="stop-color:#BB9738"/>
	</linearGradient>
	<path class="st22" d="M651.4,1212.4h9.1l14.4,18.5v-18.5h9.6v35h-8.5l-15-19.2v19.2h-9.6V1212.4z"/>
	<linearGradient id="SVGID_23_" gradientUnits="userSpaceOnUse" x1="707.088" y1="1212.3865" x2="707.088" y2="1247.4092">
		<stop  offset="0" style="stop-color:#F2CB40"/>
		<stop  offset="1" style="stop-color:#BB9738"/>
	</linearGradient>
	<path class="st23" d="M690.5,1212.4H704c12.5,0,19.7,7.2,19.7,17.3v0.1c0,10.1-7.4,17.6-19.9,17.6h-13.4V1212.4z M700.2,1220.9
		v17.9h4c5.9,0,9.7-3.2,9.7-8.9v-0.1c0-5.6-3.9-8.9-9.7-8.9H700.2z"/>
	<linearGradient id="SVGID_24_" gradientUnits="userSpaceOnUse" x1="746.2321" y1="1211.6858" x2="746.2321" y2="1248.1097">
		<stop  offset="0" style="stop-color:#F2CB40"/>
		<stop  offset="1" style="stop-color:#BB9738"/>
	</linearGradient>
	<path class="st24" d="M727.4,1230L727.4,1230c0-10.2,8.1-18.3,18.9-18.3c10.8,0,18.8,8.1,18.8,18.1v0.1c0,10.1-8.1,18.2-18.9,18.2
		C735.4,1248.1,727.4,1240.1,727.4,1230z M755.1,1230L755.1,1230c0-5.2-3.6-9.6-9-9.6c-5.4,0-8.9,4.3-8.9,9.4v0.1
		c0,5.1,3.7,9.5,9,9.5C751.6,1239.4,755.1,1235.1,755.1,1230z"/>
	<linearGradient id="SVGID_25_" gradientUnits="userSpaceOnUse" x1="797.6564" y1="1212.3865" x2="797.6564" y2="1247.4092">
		<stop  offset="0" style="stop-color:#F2CB40"/>
		<stop  offset="1" style="stop-color:#BB9738"/>
	</linearGradient>
	<path class="st25" d="M783.4,1212.4h28.2v8.2h-18.6v5.4h16.8v7.7h-16.8v5.6h18.8v8.3h-28.4V1212.4z"/>
	<linearGradient id="SVGID_26_" gradientUnits="userSpaceOnUse" x1="829.2473" y1="1211.7858" x2="829.2473" y2="1248.0098">
		<stop  offset="0" style="stop-color:#F2CB40"/>
		<stop  offset="1" style="stop-color:#BB9738"/>
	</linearGradient>
	<path class="st26" d="M814,1242.2l5.4-6.5c3.5,2.8,7.3,4.2,11.4,4.2c2.7,0,4.1-0.9,4.1-2.4v-0.1c0-1.5-1.2-2.3-6-3.4
		c-7.5-1.7-13.2-3.8-13.2-11v-0.1c0-6.5,5.2-11.2,13.6-11.2c6,0,10.6,1.6,14.4,4.7l-4.9,6.9c-3.2-2.3-6.7-3.5-9.8-3.5
		c-2.4,0-3.5,1-3.5,2.3v0.1c0,1.6,1.2,2.3,6.1,3.4c8,1.8,13,4.4,13,10.9v0.1c0,7.2-5.7,11.4-14.2,11.4
		C824.2,1248,818.3,1246.1,814,1242.2z"/>
	<linearGradient id="SVGID_27_" gradientUnits="userSpaceOnUse" x1="863.7643" y1="1212.3865" x2="863.7643" y2="1247.4092">
		<stop  offset="0" style="stop-color:#F2CB40"/>
		<stop  offset="1" style="stop-color:#BB9738"/>
	</linearGradient>
	<path class="st27" d="M849,1212.4H864c8.8,0,14.5,4.6,14.5,12.3v0.1c0,8.3-6.4,12.7-15,12.7h-4.9v10H849V1212.4z M863.3,1229.8
		c3.4,0,5.6-1.9,5.6-4.6v-0.1c0-3-2.2-4.6-5.6-4.6h-4.6v9.3H863.3z"/>
	<linearGradient id="SVGID_28_" gradientUnits="userSpaceOnUse" x1="898.2807" y1="1212.3865" x2="898.2807" y2="1248.0598">
		<stop  offset="0" style="stop-color:#F2CB40"/>
		<stop  offset="1" style="stop-color:#BB9738"/>
	</linearGradient>
	<path class="st28" d="M882,1232v-19.7h9.8v19.5c0,5.1,2.6,7.5,6.5,7.5c4,0,6.5-2.3,6.5-7.2v-19.7h9.8v19.4
		c0,11.3-6.5,16.3-16.4,16.3C888.2,1248.1,882,1243,882,1232z"/>
	<linearGradient id="SVGID_29_" gradientUnits="userSpaceOnUse" x1="934.2733" y1="1212.3865" x2="934.2733" y2="1247.4092">
		<stop  offset="0" style="stop-color:#F2CB40"/>
		<stop  offset="1" style="stop-color:#BB9738"/>
	</linearGradient>
	<path class="st29" d="M920.1,1212.4h28.2v8.2h-18.6v5.4h16.8v7.7h-16.8v5.6h18.8v8.3h-28.4V1212.4z"/>
	<linearGradient id="SVGID_30_" gradientUnits="userSpaceOnUse" x1="966.5641" y1="1212.3865" x2="966.5641" y2="1247.4092">
		<stop  offset="0" style="stop-color:#F2CB40"/>
		<stop  offset="1" style="stop-color:#BB9738"/>
	</linearGradient>
	<path class="st30" d="M953.2,1212.4h9.7v26.5h17v8.5h-26.7V1212.4z"/>
	<linearGradient id="SVGID_31_" gradientUnits="userSpaceOnUse" x1="1000.6559" y1="1212.1366" x2="1000.6559" y2="1247.4092">
		<stop  offset="0" style="stop-color:#F2CB40"/>
		<stop  offset="1" style="stop-color:#BB9738"/>
	</linearGradient>
	<path class="st31" d="M996,1212.1h9.4l14.9,35.3h-10.4l-2.5-6.3h-13.6l-2.5,6.3h-10.2L996,1212.1z M1004.5,1233.6l-3.9-9.9l-4,9.9
		H1004.5z"/>
	<linearGradient id="SVGID_32_" gradientUnits="userSpaceOnUse" x1="1035.4977" y1="1211.7858" x2="1035.4977" y2="1248.0098">
		<stop  offset="0" style="stop-color:#F2CB40"/>
		<stop  offset="1" style="stop-color:#BB9738"/>
	</linearGradient>
	<path class="st32" d="M1020.2,1242.2l5.4-6.5c3.5,2.8,7.3,4.2,11.4,4.2c2.7,0,4.1-0.9,4.1-2.4v-0.1c0-1.5-1.2-2.3-6-3.4
		c-7.5-1.7-13.2-3.8-13.2-11v-0.1c0-6.5,5.2-11.2,13.6-11.2c6,0,10.6,1.6,14.4,4.7l-4.9,6.9c-3.2-2.3-6.7-3.5-9.8-3.5
		c-2.4,0-3.5,1-3.5,2.3v0.1c0,1.6,1.2,2.3,6.1,3.4c8,1.8,13,4.4,13,10.9v0.1c0,7.2-5.7,11.4-14.2,11.4
		C1030.4,1248,1024.6,1246.1,1020.2,1242.2z"/>
</g>
<g>
	<path class="st0" d="M57.5,21v0.7l-1,0.3l1,0.3V23l-1,0.3l1,0.3v0.7l-2.1-0.7V23l1-0.4l-1-0.4v-0.6L57.5,21z"/>
	<path class="st0" d="M57.5,24.9v0.7h-2.1v-0.7H57.5z"/>
	<path class="st0" d="M56.9,26.9v-0.6h0.6v1.9h-0.6v-0.6h-1.5v-0.7H56.9z"/>
	<path class="st0" d="M57.5,28.9v0.7h-0.7v0.6h0.7v0.7h-2.1v-0.7h0.8v-0.6h-0.8v-0.7H57.5z"/>
</g>
<g>
	<path class="st0" d="M0,0.4h6l3.7,6l3.7-6h6v17.1h-5.7V9l-3.9,6.1H9.6L5.6,9v8.5H0V0.4z"/>
	<path class="st0" d="M27.1,0.2h5.7L40,17.5h-6.2l-0.9-2.3h-6L26,17.5h-6.1L27.1,0.2z M31.5,11.1L29.9,7l-1.6,4.2H31.5z"/>
	<path class="st0" d="M42.8,5.2h-5V0.4h15.8v4.9h-5v12.3h-5.7V5.2z"/>
	<path class="st0" d="M59.1,5.2h-5V0.4h15.8v4.9h-5v12.3h-5.7V5.2z"/>
	<path class="st0" d="M71.1,0.4h14.6v4.7h-9v1.7h8.4V11h-8.4v1.9h9.1v4.7H71.1V0.4z"/>
	<path class="st0" d="M87.3,0.4h8.4c3,0,5,0.8,6.2,2c1,1,1.6,2.3,1.6,4.1v0c0,2.5-1.3,4.2-3.4,5.2l4,5.8h-6.5l-3.2-4.9H93v4.9h-5.7
		V0.4z M95.5,8.5c1.4,0,2.2-0.6,2.2-1.7v0c0-1.1-0.9-1.6-2.2-1.6H93v3.4H95.5z"/>
	<path class="st0" d="M110.4,9L110.4,9c0-5,4.1-9,9.4-9c5.3,0,9.3,3.9,9.3,8.9v0c0,5-4.1,8.9-9.4,8.9C114.4,17.9,110.4,14,110.4,9z
		 M123.3,9L123.3,9c0-2.1-1.4-3.9-3.6-3.9c-2.2,0-3.6,1.8-3.6,3.8v0c0,2,1.4,3.9,3.6,3.9C121.9,12.8,123.3,11,123.3,9z"/>
	<path class="st0" d="M130.5,0.4h14.4v4.9h-8.6v2.2h8v4.5h-8v5.6h-5.7V0.4z"/>
	<path class="st0" d="M152.2,0.4h14.4v4.9h-8.6v2.2h8v4.5h-8v5.6h-5.7V0.4z"/>
	<path class="st0" d="M171.8,0.2h5.7l7.2,17.3h-6.2l-0.9-2.3h-6l-0.9,2.3h-6.1L171.8,0.2z M176.2,11.1L174.6,7l-1.6,4.2H176.2z"/>
	<path class="st0" d="M183.8,9L183.8,9c0-5.2,4-9,9.1-9c3.8,0,6.3,1.8,7.8,4.5L196,7.2c-0.6-1.2-1.5-2.1-3.1-2.1
		c-1.9,0-3.2,1.7-3.2,3.7v0c0,2.2,1.3,3.8,3.2,3.8c1.6,0,2.5-0.9,3.2-2.2l4.7,2.7c-1.4,2.5-3.8,4.6-8.1,4.6
		C187.9,17.9,183.8,14.3,183.8,9z"/>
	<path class="st0" d="M206.2,5.2h-5V0.4h15.8v4.9h-5v12.3h-5.7V5.2z"/>
</g>
<g>
	<linearGradient id="SVGID_33_" gradientUnits="userSpaceOnUse" x1="62.8922" y1="21.4013" x2="62.8922" y2="30.9343">
		<stop  offset="0" style="stop-color:#F2CB40"/>
		<stop  offset="1" style="stop-color:#BB9738"/>
	</linearGradient>
	<path class="st33" d="M59.1,21.4h7.6v2.3h-5v1.6h4.5v2.2h-4.5v3.4h-2.6V21.4z"/>
	<linearGradient id="SVGID_34_" gradientUnits="userSpaceOnUse" x1="71.7154" y1="21.4013" x2="71.7154" y2="30.9343">
		<stop  offset="0" style="stop-color:#F2CB40"/>
		<stop  offset="1" style="stop-color:#BB9738"/>
	</linearGradient>
	<path class="st34" d="M67.8,21.4h7.7v2.2h-5.1v1.5H75v2.1h-4.6v1.5h5.1v2.2h-7.7V21.4z"/>
	<linearGradient id="SVGID_35_" gradientUnits="userSpaceOnUse" x1="81.261" y1="21.4013" x2="81.261" y2="30.9343">
		<stop  offset="0" style="stop-color:#F2CB40"/>
		<stop  offset="1" style="stop-color:#BB9738"/>
	</linearGradient>
	<path class="st35" d="M76.9,21.4h4.5c1.5,0,2.5,0.4,3.1,1c0.6,0.6,0.8,1.3,0.8,2.2v0c0,1.5-0.8,2.4-2,2.9l2.3,3.3h-3L80.7,28h-1.2
		v2.9h-2.6V21.4z M81.3,26c0.9,0,1.4-0.4,1.4-1.1v0c0-0.8-0.6-1.1-1.4-1.1h-1.7V26H81.3z"/>
	<linearGradient id="SVGID_36_" gradientUnits="userSpaceOnUse" x1="91.0987" y1="21.4013" x2="91.0987" y2="30.9343">
		<stop  offset="0" style="stop-color:#F2CB40"/>
		<stop  offset="1" style="stop-color:#BB9738"/>
	</linearGradient>
	<path class="st36" d="M86.6,21.4h2.5l3.9,5v-5h2.6v9.5h-2.3l-4.1-5.2v5.2h-2.6V21.4z"/>
	<linearGradient id="SVGID_37_" gradientUnits="userSpaceOnUse" x1="101.7942" y1="21.3333" x2="101.7942" y2="30.9343">
		<stop  offset="0" style="stop-color:#F2CB40"/>
		<stop  offset="1" style="stop-color:#BB9738"/>
	</linearGradient>
	<path class="st37" d="M100.5,21.3h2.5l4.1,9.6h-2.8l-0.7-1.7h-3.7l-0.7,1.7h-2.8L100.5,21.3z M102.8,27.2l-1.1-2.7l-1.1,2.7H102.8z
		"/>
	<linearGradient id="SVGID_38_" gradientUnits="userSpaceOnUse" x1="112.4767" y1="21.4013" x2="112.4767" y2="30.9343">
		<stop  offset="0" style="stop-color:#F2CB40"/>
		<stop  offset="1" style="stop-color:#BB9738"/>
	</linearGradient>
	<path class="st38" d="M108,21.4h2.5l3.9,5v-5h2.6v9.5h-2.3l-4.1-5.2v5.2H108V21.4z"/>
	<linearGradient id="SVGID_39_" gradientUnits="userSpaceOnUse" x1="123.1246" y1="21.4013" x2="123.1246" y2="30.9343">
		<stop  offset="0" style="stop-color:#F2CB40"/>
		<stop  offset="1" style="stop-color:#BB9738"/>
	</linearGradient>
	<path class="st39" d="M118.6,21.4h3.7c3.4,0,5.4,2,5.4,4.7v0c0,2.8-2,4.8-5.4,4.8h-3.6V21.4z M121.2,23.7v4.9h1.1
		c1.6,0,2.6-0.9,2.6-2.4v0c0-1.5-1-2.4-2.6-2.4H121.2z"/>
	<linearGradient id="SVGID_40_" gradientUnits="userSpaceOnUse" x1="133.7795" y1="21.2106" x2="133.7795" y2="31.125">
		<stop  offset="0" style="stop-color:#F2CB40"/>
		<stop  offset="1" style="stop-color:#BB9738"/>
	</linearGradient>
	<path class="st40" d="M128.6,26.2L128.6,26.2c0-2.8,2.2-5,5.1-5c2.9,0,5.1,2.2,5.1,4.9v0c0,2.7-2.2,5-5.1,5
		C130.8,31.1,128.6,28.9,128.6,26.2z M136.2,26.2L136.2,26.2c0-1.4-1-2.6-2.4-2.6c-1.5,0-2.4,1.2-2.4,2.5v0c0,1.4,1,2.6,2.5,2.6
		C135.2,28.7,136.2,27.6,136.2,26.2z"/>
	<linearGradient id="SVGID_41_" gradientUnits="userSpaceOnUse" x1="147.777" y1="21.4013" x2="147.777" y2="30.9343">
		<stop  offset="0" style="stop-color:#F2CB40"/>
		<stop  offset="1" style="stop-color:#BB9738"/>
	</linearGradient>
	<path class="st41" d="M143.9,21.4h7.7v2.2h-5.1v1.5h4.6v2.1h-4.6v1.5h5.1v2.2h-7.7V21.4z"/>
	<linearGradient id="SVGID_42_" gradientUnits="userSpaceOnUse" x1="156.3759" y1="21.2378" x2="156.3759" y2="31.0978">
		<stop  offset="0" style="stop-color:#F2CB40"/>
		<stop  offset="1" style="stop-color:#BB9738"/>
	</linearGradient>
	<path class="st42" d="M152.2,29.5l1.5-1.8c1,0.7,2,1.1,3.1,1.1c0.7,0,1.1-0.2,1.1-0.7v0c0-0.4-0.3-0.6-1.6-0.9c-2-0.5-3.6-1-3.6-3
		v0c0-1.8,1.4-3.1,3.7-3.1c1.6,0,2.9,0.4,3.9,1.3l-1.3,1.9c-0.9-0.6-1.8-0.9-2.7-0.9c-0.6,0-1,0.3-1,0.6v0c0,0.4,0.3,0.6,1.7,0.9
		c2.2,0.5,3.5,1.2,3.5,3v0c0,1.9-1.5,3.1-3.9,3.1C155,31.1,153.4,30.6,152.2,29.5z"/>
	<linearGradient id="SVGID_43_" gradientUnits="userSpaceOnUse" x1="165.7713" y1="21.4013" x2="165.7713" y2="30.9343">
		<stop  offset="0" style="stop-color:#F2CB40"/>
		<stop  offset="1" style="stop-color:#BB9738"/>
	</linearGradient>
	<path class="st43" d="M161.7,21.4h4.1c2.4,0,3.9,1.2,3.9,3.3v0c0,2.3-1.7,3.4-4.1,3.4h-1.3v2.7h-2.6V21.4z M165.7,26.1
		c0.9,0,1.5-0.5,1.5-1.3v0c0-0.8-0.6-1.2-1.5-1.2h-1.3v2.5H165.7z"/>
	<linearGradient id="SVGID_44_" gradientUnits="userSpaceOnUse" x1="175.1665" y1="21.4013" x2="175.1665" y2="31.1114">
		<stop  offset="0" style="stop-color:#F2CB40"/>
		<stop  offset="1" style="stop-color:#BB9738"/>
	</linearGradient>
	<path class="st44" d="M170.7,26.8v-5.4h2.7v5.3c0,1.4,0.7,2,1.8,2c1.1,0,1.8-0.6,1.8-2v-5.4h2.7v5.3c0,3.1-1.8,4.4-4.5,4.4
		C172.4,31.1,170.7,29.7,170.7,26.8z"/>
	<linearGradient id="SVGID_45_" gradientUnits="userSpaceOnUse" x1="184.9636" y1="21.4013" x2="184.9636" y2="30.9343">
		<stop  offset="0" style="stop-color:#F2CB40"/>
		<stop  offset="1" style="stop-color:#BB9738"/>
	</linearGradient>
	<path class="st45" d="M181.1,21.4h7.7v2.2h-5.1v1.5h4.6v2.1h-4.6v1.5h5.1v2.2h-7.7V21.4z"/>
	<linearGradient id="SVGID_46_" gradientUnits="userSpaceOnUse" x1="193.753" y1="21.4013" x2="193.753" y2="30.9343">
		<stop  offset="0" style="stop-color:#F2CB40"/>
		<stop  offset="1" style="stop-color:#BB9738"/>
	</linearGradient>
	<path class="st46" d="M190.1,21.4h2.6v7.2h4.6v2.3h-7.3V21.4z"/>
	<linearGradient id="SVGID_47_" gradientUnits="userSpaceOnUse" x1="203.0327" y1="21.3333" x2="203.0327" y2="30.9343">
		<stop  offset="0" style="stop-color:#F2CB40"/>
		<stop  offset="1" style="stop-color:#BB9738"/>
	</linearGradient>
	<path class="st47" d="M201.8,21.3h2.5l4.1,9.6h-2.8l-0.7-1.7h-3.7l-0.7,1.7h-2.8L201.8,21.3z M204.1,27.2l-1.1-2.7l-1.1,2.7H204.1z
		"/>
	<linearGradient id="SVGID_48_" gradientUnits="userSpaceOnUse" x1="212.5165" y1="21.2378" x2="212.5165" y2="31.0978">
		<stop  offset="0" style="stop-color:#F2CB40"/>
		<stop  offset="1" style="stop-color:#BB9738"/>
	</linearGradient>
	<path class="st48" d="M208.4,29.5l1.5-1.8c1,0.7,2,1.1,3.1,1.1c0.7,0,1.1-0.2,1.1-0.7v0c0-0.4-0.3-0.6-1.6-0.9c-2-0.5-3.6-1-3.6-3
		v0c0-1.8,1.4-3.1,3.7-3.1c1.6,0,2.9,0.4,3.9,1.3l-1.3,1.9c-0.9-0.6-1.8-0.9-2.7-0.9c-0.6,0-1,0.3-1,0.6v0c0,0.4,0.3,0.6,1.7,0.9
		c2.2,0.5,3.5,1.2,3.5,3v0c0,1.9-1.5,3.1-3.9,3.1C211.1,31.1,209.5,30.6,208.4,29.5z"/>
</g>
</svg>
