<?xml version="1.0" encoding="utf-8"?>
<!-- Generator: Adobe Illustrator 19.1.0, SVG Export Plug-In . SVG Version: 6.00 Build 0)  -->
<svg version="1.1" id="Слой_1" xmlns="http://www.w3.org/2000/svg" xmlns:xlink="http://www.w3.org/1999/xlink" x="0px" y="0px"
	 viewBox="0 0 280 41" style="enable-background:new 0 0 280 41;" xml:space="preserve">
<style type="text/css">
	.st0{fill:#395B99;}
	.st1{fill:#395B98;}
	.st2{fill:url(#SVGID_1_);}
	.st3{fill:url(#SVGID_2_);}
	.st4{fill:url(#SVGID_3_);}
	.st5{fill:url(#SVGID_4_);}
	.st6{fill:url(#SVGID_5_);}
	.st7{fill:url(#SVGID_6_);}
	.st8{fill:url(#SVGID_7_);}
	.st9{fill:url(#SVGID_8_);}
	.st10{fill:url(#SVGID_9_);}
	.st11{fill:url(#SVGID_10_);}
	.st12{fill:url(#SVGID_11_);}
	.st13{fill:url(#SVGID_12_);}
	.st14{fill:url(#SVGID_13_);}
	.st15{fill:url(#SVGID_14_);}
	.st16{fill:url(#SVGID_15_);}
	.st17{fill:url(#SVGID_16_);}
</style>
<g>
	<path class="st0" d="M74.2,27.1v1l-1.3,0.4l1.3,0.4v0.8l-1.3,0.4l1.3,0.4v0.9l-2.7-0.9v-0.8l1.4-0.5l-1.4-0.5V28L74.2,27.1z"/>
	<path class="st0" d="M74.2,32.2v0.9h-2.7v-0.9H74.2z"/>
	<path class="st0" d="M73.4,34.7v-0.8h0.8v2.5h-0.8v-0.8h-2v-0.9H73.4z"/>
	<path class="st0" d="M74.2,37.3v0.9h-1V39h1v0.9h-2.7V39h1v-0.8h-1v-0.9H74.2z"/>
</g>
<g>
	<path class="st1" d="M0,0.5h7.7l4.7,7.8l4.7-7.8h7.7v22.1h-7.4v-11l-5.1,7.9h-0.1l-5.1-7.9v11H0V0.5z"/>
	<path class="st1" d="M35,0.3h7.3l9.3,22.3h-8l-1.2-3h-7.7l-1.1,3h-7.9L35,0.3z M40.6,14.4l-2-5.4l-2,5.4H40.6z"/>
	<path class="st1" d="M55.2,6.7h-6.5V0.5h20.4v6.3h-6.5v15.9h-7.4V6.7z"/>
	<path class="st1" d="M76.3,6.7h-6.5V0.5h20.4v6.3h-6.5v15.9h-7.4V6.7z"/>
	<path class="st1" d="M91.8,0.5h18.9v6.1H99v2.2h10.8v5.3H99v2.4h11.8v6.1h-19V0.5z"/>
	<path class="st1" d="M112.6,0.5h10.8c3.9,0,6.4,1,8,2.5c1.3,1.3,2,3,2,5.2v0.1c0,3.2-1.7,5.5-4.4,6.8l5.2,7.5h-8.4l-4.2-6.3H120
		v6.3h-7.4V0.5z M123.2,11c1.8,0,2.8-0.8,2.8-2.2V8.8c0-1.4-1.1-2.1-2.8-2.1H120V11H123.2z"/>
	<path class="st1" d="M142.4,11.6L142.4,11.6c0-6.5,5.3-11.6,12.1-11.6c6.8,0,12,5.1,12,11.5v0.1c0,6.4-5.3,11.5-12.1,11.5
		C147.7,23.1,142.4,18,142.4,11.6z M159.1,11.6L159.1,11.6c0-2.7-1.8-5.1-4.6-5.1c-2.8,0-4.6,2.3-4.6,4.9v0.1c0,2.6,1.8,5,4.6,5
		C157.4,16.5,159.1,14.2,159.1,11.6z"/>
	<path class="st1" d="M168.5,0.5H187v6.3h-11.1v2.8h10.3v5.8h-10.3v7.2h-7.4V0.5z"/>
	<path class="st1" d="M196.4,0.5H215v6.3h-11.1v2.8h10.3v5.8h-10.3v7.2h-7.4V0.5z"/>
	<path class="st1" d="M221.7,0.3h7.3l9.3,22.3h-8l-1.2-3h-7.7l-1.1,3h-7.9L221.7,0.3z M227.4,14.4l-2-5.4l-2,5.4H227.4z"/>
	<path class="st1" d="M237.2,11.6L237.2,11.6C237.2,4.9,242.4,0,249,0c4.9,0,8.2,2.4,10,5.8l-6.1,3.6c-0.8-1.6-2-2.7-4-2.7
		c-2.5,0-4.1,2.2-4.1,4.8v0.1c0,2.9,1.7,4.9,4.1,4.9c2.1,0,3.3-1.1,4.2-2.8l6.1,3.4c-1.9,3.3-5,6-10.5,6
		C242.6,23.1,237.2,18.5,237.2,11.6z"/>
	<path class="st1" d="M266.1,6.7h-6.5V0.5H280v6.3h-6.5v15.9h-7.4V6.7z"/>
</g>
<g>
	<linearGradient id="SVGID_1_" gradientUnits="userSpaceOnUse" x1="81.1738" y1="27.6222" x2="81.1738" y2="39.9263">
		<stop  offset="0" style="stop-color:#F2CB40"/>
		<stop  offset="1" style="stop-color:#BB9738"/>
	</linearGradient>
	<path class="st2" d="M76.3,27.6h9.8v3h-6.4v2.1h5.8v2.8h-5.8v4.4h-3.4V27.6z"/>
	<linearGradient id="SVGID_2_" gradientUnits="userSpaceOnUse" x1="92.5617" y1="27.6222" x2="92.5617" y2="39.9263">
		<stop  offset="0" style="stop-color:#F2CB40"/>
		<stop  offset="1" style="stop-color:#BB9738"/>
	</linearGradient>
	<path class="st3" d="M87.6,27.6h9.9v2.9h-6.5v1.9h5.9v2.7h-5.9v2h6.6v2.9h-10V27.6z"/>
	<linearGradient id="SVGID_3_" gradientUnits="userSpaceOnUse" x1="104.882" y1="27.6222" x2="104.882" y2="39.9263">
		<stop  offset="0" style="stop-color:#F2CB40"/>
		<stop  offset="1" style="stop-color:#BB9738"/>
	</linearGradient>
	<path class="st4" d="M99.2,27.6h5.8c1.9,0,3.2,0.5,4,1.3c0.7,0.7,1.1,1.7,1.1,2.9v0c0,1.9-1,3.1-2.5,3.8l2.9,4.3h-3.9l-2.5-3.7
		h-1.5v3.7h-3.4V27.6z M104.9,33.5c1.1,0,1.8-0.6,1.8-1.5v0c0-1-0.7-1.5-1.8-1.5h-2.2v3H104.9z"/>
	<linearGradient id="SVGID_4_" gradientUnits="userSpaceOnUse" x1="117.5793" y1="27.6222" x2="117.5793" y2="39.9263">
		<stop  offset="0" style="stop-color:#F2CB40"/>
		<stop  offset="1" style="stop-color:#BB9738"/>
	</linearGradient>
	<path class="st5" d="M111.8,27.6h3.2l5.1,6.5v-6.5h3.4v12.3h-3l-5.3-6.7v6.7h-3.4V27.6z"/>
	<linearGradient id="SVGID_5_" gradientUnits="userSpaceOnUse" x1="131.3838" y1="27.5344" x2="131.3838" y2="39.9263">
		<stop  offset="0" style="stop-color:#F2CB40"/>
		<stop  offset="1" style="stop-color:#BB9738"/>
	</linearGradient>
	<path class="st6" d="M129.7,27.5h3.3l5.2,12.4h-3.7l-0.9-2.2H129l-0.9,2.2h-3.6L129.7,27.5z M132.7,35.1l-1.4-3.5l-1.4,3.5H132.7z"
		/>
	<linearGradient id="SVGID_6_" gradientUnits="userSpaceOnUse" x1="145.1715" y1="27.6222" x2="145.1715" y2="39.9263">
		<stop  offset="0" style="stop-color:#F2CB40"/>
		<stop  offset="1" style="stop-color:#BB9738"/>
	</linearGradient>
	<path class="st7" d="M139.4,27.6h3.2l5.1,6.5v-6.5h3.4v12.3h-3l-5.3-6.7v6.7h-3.4V27.6z"/>
	<linearGradient id="SVGID_7_" gradientUnits="userSpaceOnUse" x1="158.9146" y1="27.6222" x2="158.9146" y2="39.9263">
		<stop  offset="0" style="stop-color:#F2CB40"/>
		<stop  offset="1" style="stop-color:#BB9738"/>
	</linearGradient>
	<path class="st8" d="M153.1,27.6h4.8c4.4,0,6.9,2.5,6.9,6.1v0c0,3.6-2.6,6.2-7,6.2h-4.7V27.6z M156.5,30.6v6.3h1.4
		c2.1,0,3.4-1.1,3.4-3.1v0c0-2-1.4-3.1-3.4-3.1H156.5z"/>
	<linearGradient id="SVGID_8_" gradientUnits="userSpaceOnUse" x1="172.6666" y1="27.3761" x2="172.6666" y2="40.1725">
		<stop  offset="0" style="stop-color:#F2CB40"/>
		<stop  offset="1" style="stop-color:#BB9738"/>
	</linearGradient>
	<path class="st9" d="M166,33.8L166,33.8c0-3.6,2.8-6.4,6.6-6.4c3.8,0,6.6,2.8,6.6,6.4v0c0,3.5-2.8,6.4-6.6,6.4
		C168.9,40.2,166,37.3,166,33.8z M175.8,33.8L175.8,33.8c0-1.8-1.3-3.4-3.1-3.4s-3.1,1.5-3.1,3.3v0c0,1.8,1.3,3.3,3.2,3.3
		C174.5,37.1,175.8,35.6,175.8,33.8z"/>
	<linearGradient id="SVGID_9_" gradientUnits="userSpaceOnUse" x1="190.733" y1="27.6222" x2="190.733" y2="39.9263">
		<stop  offset="0" style="stop-color:#F2CB40"/>
		<stop  offset="1" style="stop-color:#BB9738"/>
	</linearGradient>
	<path class="st10" d="M185.7,27.6h9.9v2.9h-6.5v1.9h5.9v2.7h-5.9v2h6.6v2.9h-10V27.6z"/>
	<linearGradient id="SVGID_10_" gradientUnits="userSpaceOnUse" x1="201.8314" y1="27.4112" x2="201.8314" y2="40.1374">
		<stop  offset="0" style="stop-color:#F2CB40"/>
		<stop  offset="1" style="stop-color:#BB9738"/>
	</linearGradient>
	<path class="st11" d="M196.5,38.1l1.9-2.3c1.2,1,2.6,1.5,4,1.5c0.9,0,1.4-0.3,1.4-0.8v0c0-0.5-0.4-0.8-2.1-1.2
		c-2.6-0.6-4.6-1.3-4.6-3.8v0c0-2.3,1.8-3.9,4.8-3.9c2.1,0,3.7,0.6,5.1,1.6l-1.7,2.4c-1.1-0.8-2.4-1.2-3.4-1.2
		c-0.8,0-1.2,0.3-1.2,0.8v0c0,0.6,0.4,0.8,2.1,1.2c2.8,0.6,4.6,1.5,4.6,3.8v0c0,2.5-2,4-5,4C200,40.1,198,39.5,196.5,38.1z"/>
	<linearGradient id="SVGID_11_" gradientUnits="userSpaceOnUse" x1="213.9579" y1="27.6222" x2="213.9579" y2="39.9263">
		<stop  offset="0" style="stop-color:#F2CB40"/>
		<stop  offset="1" style="stop-color:#BB9738"/>
	</linearGradient>
	<path class="st12" d="M208.8,27.6h5.3c3.1,0,5.1,1.6,5.1,4.3v0c0,2.9-2.2,4.4-5.3,4.4h-1.7v3.5h-3.4V27.6z M213.8,33.7
		c1.2,0,2-0.7,2-1.6v0c0-1.1-0.8-1.6-2-1.6h-1.6v3.3H213.8z"/>
	<linearGradient id="SVGID_12_" gradientUnits="userSpaceOnUse" x1="226.0841" y1="27.6222" x2="226.0841" y2="40.1549">
		<stop  offset="0" style="stop-color:#F2CB40"/>
		<stop  offset="1" style="stop-color:#BB9738"/>
	</linearGradient>
	<path class="st13" d="M220.4,34.5v-6.9h3.4v6.8c0,1.8,0.9,2.6,2.3,2.6c1.4,0,2.3-0.8,2.3-2.5v-6.9h3.4v6.8c0,4-2.3,5.7-5.8,5.7
		C222.6,40.2,220.4,38.4,220.4,34.5z"/>
	<linearGradient id="SVGID_13_" gradientUnits="userSpaceOnUse" x1="238.729" y1="27.6222" x2="238.729" y2="39.9263">
		<stop  offset="0" style="stop-color:#F2CB40"/>
		<stop  offset="1" style="stop-color:#BB9738"/>
	</linearGradient>
	<path class="st14" d="M233.7,27.6h9.9v2.9h-6.5v1.9h5.9v2.7h-5.9v2h6.6v2.9h-10V27.6z"/>
	<linearGradient id="SVGID_14_" gradientUnits="userSpaceOnUse" x1="250.0733" y1="27.6222" x2="250.0733" y2="39.9263">
		<stop  offset="0" style="stop-color:#F2CB40"/>
		<stop  offset="1" style="stop-color:#BB9738"/>
	</linearGradient>
	<path class="st15" d="M245.4,27.6h3.4v9.3h6v3h-9.4V27.6z"/>
	<linearGradient id="SVGID_15_" gradientUnits="userSpaceOnUse" x1="262.0504" y1="27.5344" x2="262.0504" y2="39.9263">
		<stop  offset="0" style="stop-color:#F2CB40"/>
		<stop  offset="1" style="stop-color:#BB9738"/>
	</linearGradient>
	<path class="st16" d="M260.4,27.5h3.3l5.2,12.4h-3.7l-0.9-2.2h-4.8l-0.9,2.2h-3.6L260.4,27.5z M263.4,35.1l-1.4-3.5l-1.4,3.5H263.4
		z"/>
	<linearGradient id="SVGID_16_" gradientUnits="userSpaceOnUse" x1="274.291" y1="27.4112" x2="274.291" y2="40.1374">
		<stop  offset="0" style="stop-color:#F2CB40"/>
		<stop  offset="1" style="stop-color:#BB9738"/>
	</linearGradient>
	<path class="st17" d="M268.9,38.1l1.9-2.3c1.2,1,2.6,1.5,4,1.5c0.9,0,1.4-0.3,1.4-0.8v0c0-0.5-0.4-0.8-2.1-1.2
		c-2.6-0.6-4.6-1.3-4.6-3.8v0c0-2.3,1.8-3.9,4.8-3.9c2.1,0,3.7,0.6,5.1,1.6l-1.7,2.4c-1.1-0.8-2.4-1.2-3.4-1.2
		c-0.8,0-1.2,0.3-1.2,0.8v0c0,0.6,0.4,0.8,2.1,1.2c2.8,0.6,4.6,1.5,4.6,3.8v0c0,2.5-2,4-5,4C272.5,40.1,270.5,39.5,268.9,38.1z"/>
</g>
</svg>
